<svg width="184" height="39" viewBox="0 0 184 39" fill="none" xmlns="http://www.w3.org/2000/svg">
<rect width="11" height="39" fill="#2F80ED"/>
<rect x="19" width="11" height="39" fill="#2D9CDB"/>
<rect x="38" width="11" height="39" fill="#EB5757"/>
<path d="M70.7061 15.8951V19.042H61.6097V15.8951H70.7061ZM63.6748 12.2762H67.8641V26.3584C67.8641 26.7452 67.9231 27.0468 68.0411 27.2631C68.1591 27.4729 68.323 27.6204 68.5328 27.7056C68.7491 27.7909 68.9983 27.8335 69.2802 27.8335C69.4768 27.8335 69.6735 27.8171 69.8702 27.7843C70.0669 27.745 70.2177 27.7155 70.3226 27.6958L70.9814 30.8132C70.7716 30.8787 70.4766 30.9541 70.0964 31.0393C69.7161 31.1311 69.2539 31.1868 68.7098 31.2065C67.7002 31.2458 66.8151 31.1115 66.0546 30.8033C65.3007 30.4952 64.7139 30.0166 64.2944 29.3676C63.8748 28.7185 63.6683 27.899 63.6748 26.9091V12.2762ZM77.7422 31.2852C76.7785 31.2852 75.9197 31.118 75.1658 30.7837C74.4118 30.4427 73.8152 29.9412 73.376 29.2791C72.9433 28.6104 72.7269 27.7778 72.7269 26.7813C72.7269 25.9421 72.881 25.2373 73.1891 24.667C73.4973 24.0966 73.9168 23.6377 74.4479 23.2902C74.9789 22.9427 75.5821 22.6805 76.2573 22.5035C76.9391 22.3265 77.6537 22.2019 78.4011 22.1298C79.2796 22.038 79.9877 21.9528 80.5252 21.8741C81.0628 21.7889 81.4529 21.6643 81.6955 21.5004C81.938 21.3365 82.0593 21.094 82.0593 20.7727V20.7137C82.0593 20.0909 81.8627 19.609 81.4693 19.2681C81.0825 18.9272 80.5318 18.7568 79.8172 18.7568C79.0633 18.7568 78.4634 18.924 78.0176 19.2583C77.5718 19.5861 77.2768 19.9991 77.1325 20.4974L73.258 20.1827C73.4547 19.2649 73.8415 18.4716 74.4184 17.8029C74.9953 17.1276 75.7394 16.6097 76.6507 16.2491C77.5685 15.882 78.6306 15.6984 79.8369 15.6984C80.676 15.6984 81.4791 15.7968 82.2462 15.9934C83.0198 16.1901 83.7049 16.495 84.3015 16.908C84.9046 17.321 85.3799 17.8521 85.7274 18.5011C86.0748 19.1436 86.2486 19.9139 86.2486 20.8121V31H82.2757V28.9054H82.1577C81.9151 29.3774 81.5906 29.7937 81.1841 30.1543C80.7776 30.5083 80.2892 30.7869 79.7189 30.9902C79.1485 31.1868 78.4896 31.2852 77.7422 31.2852ZM78.942 28.394C79.5582 28.394 80.1024 28.2727 80.5744 28.0302C81.0464 27.781 81.4168 27.4467 81.6856 27.0271C81.9544 26.6075 82.0888 26.1322 82.0888 25.6012V23.9983C81.9577 24.0835 81.7774 24.1622 81.548 24.2343C81.3251 24.2998 81.0727 24.3621 80.7908 24.4211C80.5089 24.4736 80.2269 24.5227 79.945 24.5686C79.6631 24.608 79.4075 24.644 79.178 24.6768C78.6863 24.7489 78.2569 24.8636 77.8898 25.021C77.5226 25.1783 77.2374 25.3914 77.0342 25.6602C76.831 25.9224 76.7293 26.2502 76.7293 26.6436C76.7293 27.2139 76.9359 27.6499 77.3489 27.9515C77.7685 28.2465 78.2995 28.394 78.942 28.394ZM102.066 20.2024L98.2312 20.4384C98.1656 20.1106 98.0247 19.8156 97.8083 19.5533C97.592 19.2845 97.3068 19.0715 96.9528 18.9141C96.6053 18.7502 96.189 18.6683 95.7039 18.6683C95.0549 18.6683 94.5074 18.8059 94.0616 19.0813C93.6158 19.3501 93.3929 19.7107 93.3929 20.163C93.3929 20.5236 93.5372 20.8285 93.8256 21.0776C94.1141 21.3267 94.609 21.5267 95.3105 21.6774L98.0444 22.2281C99.5129 22.5297 100.608 23.0149 101.329 23.6836C102.05 24.3523 102.411 25.2308 102.411 26.3191C102.411 27.309 102.119 28.1777 101.535 28.925C100.958 29.6724 100.165 30.2559 99.1556 30.6755C98.1525 31.0885 96.9954 31.295 95.6842 31.295C93.6847 31.295 92.0916 30.8787 90.9049 30.0461C89.7249 29.2069 89.0332 28.0662 88.83 26.6239L92.9504 26.4076C93.075 27.0173 93.3765 27.4827 93.8551 27.804C94.3337 28.1187 94.9467 28.276 95.6941 28.276C96.4283 28.276 97.0184 28.1351 97.4642 27.8531C97.9165 27.5647 98.146 27.1943 98.1525 26.7419C98.146 26.3617 97.9854 26.0503 97.6707 25.8077C97.356 25.5586 96.8708 25.3684 96.2153 25.2373L93.5994 24.7161C92.1243 24.4211 91.0262 23.9097 90.3051 23.182C89.5905 22.4543 89.2332 21.5267 89.2332 20.399C89.2332 19.4288 89.4954 18.5929 90.0199 17.8914C90.5509 17.1899 91.295 16.649 92.2522 16.2688C93.2159 15.8885 94.3435 15.6984 95.6351 15.6984C97.5428 15.6984 99.0441 16.1016 100.139 16.908C101.24 17.7144 101.883 18.8125 102.066 20.2024ZM108.844 26.6534L108.854 21.6283H109.464L114.302 15.8951H119.111L112.611 23.4869H111.618L108.844 26.6534ZM105.049 31V10.8601H109.238V31H105.049ZM114.489 31L110.044 24.4211L112.837 21.4611L119.396 31H114.489ZM121.166 31V15.8951H125.228V18.5306H125.385C125.66 17.5931 126.123 16.8851 126.772 16.4065C127.421 15.9213 128.168 15.6788 129.014 15.6788C129.224 15.6788 129.45 15.6919 129.692 15.7181C129.935 15.7443 130.148 15.7804 130.332 15.8263V19.5435C130.135 19.4845 129.863 19.432 129.515 19.3861C129.168 19.3403 128.85 19.3173 128.561 19.3173C127.945 19.3173 127.395 19.4517 126.909 19.7205C126.431 19.9827 126.051 20.3499 125.769 20.8219C125.493 21.2939 125.356 21.8381 125.356 22.4543V31H121.166ZM133.215 31.2557C132.566 31.2557 132.009 31.0262 131.544 30.5673C131.085 30.1018 130.855 29.5446 130.855 28.8955C130.855 28.2531 131.085 27.7024 131.544 27.2434C132.009 26.7845 132.566 26.5551 133.215 26.5551C133.845 26.5551 134.395 26.7845 134.867 27.2434C135.339 27.7024 135.575 28.2531 135.575 28.8955C135.575 29.3282 135.464 29.7249 135.241 30.0854C135.025 30.4395 134.74 30.7247 134.386 30.941C134.032 31.1508 133.641 31.2557 133.215 31.2557ZM139.015 31V15.8951H143.204V31H139.015ZM141.119 13.948C140.497 13.948 139.962 13.7415 139.516 13.3285C139.077 12.9089 138.858 12.4073 138.858 11.8239C138.858 11.2469 139.077 10.752 139.516 10.3389C139.962 9.91936 140.497 9.70957 141.119 9.70957C141.742 9.70957 142.273 9.91936 142.712 10.3389C143.158 10.752 143.381 11.2469 143.381 11.8239C143.381 12.4073 143.158 12.9089 142.712 13.3285C142.273 13.7415 141.742 13.948 141.119 13.948ZM153.385 31.295C151.857 31.295 150.536 30.9705 149.422 30.3215C148.314 29.6659 147.458 28.7546 146.855 27.5876C146.252 26.4141 145.95 25.0538 145.95 23.5066C145.95 21.9462 146.252 20.5826 146.855 19.4156C147.458 18.2421 148.314 17.3309 149.422 16.6818C150.536 16.0262 151.857 15.6984 153.385 15.6984C154.912 15.6984 156.23 16.0262 157.338 16.6818C158.452 17.3309 159.311 18.2421 159.914 19.4156C160.518 20.5826 160.819 21.9462 160.819 23.5066C160.819 25.0538 160.518 26.4141 159.914 27.5876C159.311 28.7546 158.452 29.6659 157.338 30.3215C156.23 30.9705 154.912 31.295 153.385 31.295ZM153.404 28.0498C154.099 28.0498 154.68 27.8531 155.145 27.4598C155.61 27.0599 155.961 26.5157 156.197 25.8274C156.44 25.139 156.561 24.3556 156.561 23.4771C156.561 22.5986 156.44 21.8151 156.197 21.1267C155.961 20.4384 155.61 19.8942 155.145 19.4943C154.68 19.0944 154.099 18.8944 153.404 18.8944C152.703 18.8944 152.113 19.0944 151.634 19.4943C151.162 19.8942 150.805 20.4384 150.562 21.1267C150.326 21.8151 150.208 22.5986 150.208 23.4771C150.208 24.3556 150.326 25.139 150.562 25.8274C150.805 26.5157 151.162 27.0599 151.634 27.4598C152.113 27.8531 152.703 28.0498 153.404 28.0498Z" fill="black"/>
</svg>
